<?xml version="1.0" standalone="no"?>
<!DOCTYPE svg PUBLIC "-//W3C//DTD SVG 1.0//EN" "http://www.w3.org/TR/2001/REC-SVG-20010904/DTD/svg10.dtd">
<svg xmlns="http://www.w3.org/2000/svg" xmlns:xlink="http://www.w3.org/1999/xlink" id="body_1" width="30" height="22">

<g transform="matrix(0.02929688 0 0 0.02864583 0 0)">
	<g transform="matrix(6.25 0 0 6.25 128 0)">
	</g>
    <path transform="matrix(6.25 0 0 6.25 128 0)"  d="M61.44 0C 86.29016 0 108.6934 14.96938 118.2032 37.92793C 127.7129 60.88648 122.4564 87.31292 104.8846 104.8846C 87.31292 122.4564 60.88649 127.7129 37.92793 118.2032C 14.96938 108.6934 0 86.29016 0 61.44C 0 27.50762 27.50762 0 61.44 0zM30.73 38L62 63.47L91.91 38zM28.73 80.89L51 58.55L28.71 40.39L28.71 80.87zM53.43 60.55L30.48 83.55L92.21 83.55L70.27 60.55L63 66.71C 62.41957 67.18956 61.58043 67.18956 61 66.71L61 66.71L53.41 60.52zM72.67 58.55L94.17 81.09L94.17 40.19L72.67 58.51z" stroke="none" fill="#000000" fill-rule="nonzero" />
</g>
</svg>