<?xml version="1.0" encoding="UTF-8"?>
<svg xmlns="http://www.w3.org/2000/svg" xmlns:xlink="http://www.w3.org/1999/xlink" width="24px" height="24px" viewBox="0 0 24 24" version="1.1">
<g id="surface1">
<path style=" stroke:none;fill-rule:evenodd;fill:rgb(0%,0%,0%);fill-opacity:1;" d="M 12 0 C 18.628906 0 24 5.371094 24 12 C 24 18.628906 18.628906 24 12 24 C 5.371094 24 0 18.628906 0 12 C 0 5.371094 5.371094 0 12 0 Z M 6 7.421875 L 12.109375 12.398438 L 17.953125 7.421875 Z M 5.609375 15.796875 L 9.960938 11.4375 L 5.609375 7.890625 Z M 10.4375 11.828125 L 5.953125 16.320312 L 18.007812 16.320312 L 13.726562 11.828125 L 12.304688 13.03125 C 12.191406 13.121094 12.027344 13.121094 11.914062 13.03125 L 10.429688 11.820312 Z M 14.195312 11.4375 L 18.390625 15.835938 L 18.390625 7.851562 L 14.191406 11.429688 Z M 14.195312 11.4375 "/>
</g>
</svg>
